<svg id="Layer_1" data-name="Layer 1" xmlns="http://www.w3.org/2000/svg" viewBox="0 0 1005.84 743.93"><title>coal</title><g id="_Layer_" data-name=" Layer "><polygon points="78.54 406.16 170.53 286.7 444.09 250.86 654.33 451.55 417.81 588.93 186.06 554.29 78.54 406.16" style="fill:#36383d"/><path d="M83.33,571,78.55,406.12,186.06,554.24S155,678.48,153.81,674.9,83.33,571,83.33,571Z" style="fill:#3d4247"/><polygon points="417.81 736.16 417.81 588.93 186.06 554.29 153.8 674.94 417.81 736.16" style="fill:#0e0f11"/><polygon points="654.33 451.55 649.55 554.29 417.81 736.16 417.81 588.93 654.33 451.55" style="fill:#1a1b1d"/><polygon points="83.32 571.01 89.89 444.98 186.06 554.29 78.54 406.16 83.32 571.01" style="fill:#2e3135;opacity:0.5;isolation:isolate"/><polygon points="78.54 406.16 178.89 298.05 249.13 276.4 170.53 286.7 78.54 406.16" style="fill:#36383d;opacity:0.5;isolation:isolate"/><polygon points="488.88 173.22 451.25 406.16 359.57 439.61 292.32 270.75 406.46 28.67 488.88 173.22" style="fill:#36383d"/><polygon points="696.14 96.76 488.88 173.22 406.46 28.67 596.4 0 696.14 96.76" style="fill:#36383d"/><polygon points="451.25 406.16 500.2 483.81 728.4 348.82 764.24 244.89 696.14 96.76 488.88 173.22 451.25 406.16" style="fill:#1a1b1d"/><polygon points="359.57 439.61 500.2 483.81 451.25 406.16 359.57 439.61" style="fill:#0e0f11"/><polygon points="292.32 270.75 406.46 53.16 488.88 173.22 406.46 28.67 292.32 270.75" style="fill:#36383d;opacity:0.5;isolation:isolate"/><polygon points="406.46 28.67 594.6 12.54 696.14 96.76 596.4 0 406.46 28.67" style="fill:#36383d;opacity:0.5;isolation:isolate"/><polygon points="542.19 638.59 683.75 683.9 718.84 483.81 482.31 419.9 542.19 638.59" style="fill:#0e0f11"/><polygon points="841.88 317.76 718.84 483.81 482.31 419.9 628.05 250.86 841.88 317.76" style="fill:#3d4247"/><polygon points="683.75 683.9 825.16 610.43 889.37 396 841.88 317.76 718.84 483.81 683.75 683.9" style="fill:#1a1b1d"/><polygon points="542.19 638.59 500.2 436.62 718.84 483.81 482.31 419.9 542.19 638.59" style="fill:#0e0f11;opacity:0.5;isolation:isolate"/><polygon points="482.31 419.9 633.43 263.41 841.88 317.76 628.05 250.86 482.31 419.9" style="fill:#2e3135;opacity:0.5;isolation:isolate"/><polygon points="0 655.83 46.59 689.27 46.59 632.53 20.91 622.38 0 655.83" style="fill:#3d4247"/><polygon points="100.94 655.83 46.59 689.27 46.59 632.53 85.41 615.21 100.94 655.83" style="fill:#1a1b1d"/><polygon points="20.91 622.38 46.59 632.53 85.41 615.21 53.16 607.45 20.91 622.38" style="fill:#36383d"/><polygon points="0 655.83 24.49 628.05 46.59 632.53 20.91 622.38 0 655.83" style="fill:#2e3135;opacity:0.5;isolation:isolate"/><polygon points="20.91 622.38 53.16 611.33 85.41 615.21 53.16 607.45 20.91 622.38" style="fill:#36383d;opacity:0.5;isolation:isolate"/><polygon points="547.42 705.7 567.13 674.04 584.45 702.12 575.49 730.79 547.42 705.7" style="fill:#36383d"/><polygon points="632.23 706.9 575.49 730.79 584.45 702.12 619.09 690.17 632.23 706.9" style="fill:#1a1b1d"/><polygon points="598.78 674.04 567.13 674.04 584.45 702.12 619.09 690.17 598.78 674.04" style="fill:#3d4247"/><polygon points="547.42 705.7 567.13 683 584.45 702.12 567.13 674.04 547.42 705.7" style="fill:#36383d;opacity:0.5;isolation:isolate"/><polygon points="567.13 674.04 597.59 677.93 619.09 690.17 598.78 674.04 567.13 674.04" style="fill:#2e3135;opacity:0.5;isolation:isolate"/><polygon points="832.92 675.54 807.54 722.42 875.93 743.93 870.55 691.66 832.92 675.54" style="fill:#3d4247"/><polygon points="915.35 695.55 875.93 743.93 870.55 691.66 901.01 658.81 915.35 695.55" style="fill:#1a1b1d"/><polygon points="832.92 675.54 866.97 648.06 901.01 658.81 870.55 691.66 832.92 675.54" style="fill:#36383d"/><polygon points="807.54 722.42 837.4 683.3 870.55 691.66 832.92 675.54 807.54 722.42" style="fill:#2e3135;opacity:0.5;isolation:isolate"/><polygon points="832.92 675.54 866.97 653.14 901.01 658.81 866.97 648.06 832.92 675.54" style="fill:#36383d;opacity:0.5;isolation:isolate"/><polygon points="892.95 547.46 943.12 581.76 943.12 515.76 915.35 500.53 892.95 547.46" style="fill:#3d4247"/><polygon points="1005.84 541.15 943.12 581.76 943.12 515.76 985.23 500.53 1005.84 541.15" style="fill:#1a1b1d"/><polygon points="915.35 500.53 960.15 483.81 985.23 500.53 943.12 515.76 915.35 500.53" style="fill:#36383d"/><polygon points="892.95 547.46 918.04 508.59 943.12 515.76 915.35 500.53 892.95 547.46" style="fill:#2e3135;opacity:0.5;isolation:isolate"/><polygon points="915.35 500.53 959.85 489.18 985.23 500.53 960.15 483.81 915.35 500.53" style="fill:#36383d;opacity:0.5;isolation:isolate"/><polygon points="359.57 439.61 307.66 238.21 249.13 276.4 359.57 439.61" style="fill:#3d4247"/><path d="M249.12,276.4l60.31-31.3s-.57-7.68-1.77-6.9Z" style="fill:#36383d;opacity:0.5;isolation:isolate"/><polygon points="362.02 580.59 417.81 652.24 458.21 565.46 362.02 580.59" style="fill:#484c52"/><path d="M148.12,502s27.14,92.56,27.34,91.82,43.07-34.72,43.07-34.72Z" style="fill:#484c52"/><path d="M463.9,328c-.38,2.36-46.09,90.44-46.09,90.44l40.4-1.17Z" style="fill:#484c52"/><polygon points="647.91 464.64 708.78 541.15 749.62 442.28 647.91 464.64" style="fill:#484c52"/><polygon points="623.86 123.43 482.31 213.89 471.44 142.62 623.86 123.43" style="fill:#484c52"/><polygon points="928.09 507.52 943.12 541.15 959.88 509.7 928.09 507.52" style="fill:#484c52"/><polygon points="848.52 682.22 871.86 704.4 877.75 683.9 848.52 682.22" style="fill:#484c52"/><polygon points="575.06 686.9 581.84 710.48 594.39 698.69 575.06 686.9" style="fill:#484c52"/><polygon points="35.29 628.07 46.59 652.24 73.77 619.99 35.29 628.07" style="fill:#484c52"/><polygon points="796.49 303.56 807.87 363.66 841.88 317.76 796.49 303.56" style="fill:#484c52"/><polygon points="800.84 373.14 796.49 554.29 791.57 385.66 740.12 367.33 800.84 373.14" style="fill:#0e0f11"/><polygon points="779.28 402.25 786.56 457.88 773.73 409.74 754.38 403.38 779.28 402.25" style="fill:#0e0f11"/><polygon points="100.94 437.02 100.94 540.59 109.64 449 132.3 437.02 100.94 437.02" style="fill:#0e0f11"/><polygon points="417.7 48.38 366.44 195.81 423.22 58.06 457.75 48.38 417.7 48.38" style="fill:#0e0f11"/><polygon points="423.22 96.76 429.89 69.76 547.65 45.3 436.2 80.84 423.22 96.76" style="fill:#0e0f11"/></g></svg>