<svg id="Layer_1" data-name="Layer 1" xmlns="http://www.w3.org/2000/svg" viewBox="0 0 107.19 109.4"><title>present</title><path d="M479.76,37.13a5.18,5.18,0,0,0-7.27,4.72L474.08,55c0,3.14-1.45,6.59,1.05,8.49,2,1.52,4.8,1.34,7.32,1.1l27.24-2.68c.59-2.12-1.6-2-1-4.12l-22-16.32A38.38,38.38,0,0,0,479.76,37.13Z" transform="translate(-456.81 -36.68)" style="fill:#c8d411"/><path d="M540.85,37.13a5.18,5.18,0,0,1,7.27,4.72L546.53,55c0,3.14,1.46,6.59-1,8.49-2,1.52-4.79,1.34-7.31,1.1l-27.25-2.68c-.58-2.12,1.61-2,1-4.12l22-16.32A38.65,38.65,0,0,1,540.85,37.13Z" transform="translate(-456.81 -36.68)" style="fill:#c8d411"/><path d="M540.85,37.13a38.65,38.65,0,0,0-6.88,4.3l-22,16.32c.18.67.2,1.43.79,1.81.79.5,2.42.11,3.27,0,8.12-1.35,16.46-3.48,23.85-7.18,4.09-2,7.69-5.71,8.27-10.45v0A5.18,5.18,0,0,0,540.85,37.13Z" transform="translate(-456.81 -36.68)" style="fill:#95b213"/><path d="M479.71,37.13a38.3,38.3,0,0,1,6.88,4.3l22,16.32c-.18.67-.2,1.43-.78,1.81-.8.5-2.43.11-3.28,0-8.12-1.35-16.46-3.48-23.84-7.18-4.1-2-7.7-5.71-8.27-10.45v0A5.18,5.18,0,0,1,479.71,37.13Z" transform="translate(-456.81 -36.68)" style="fill:#95b213"/><path d="M530.18,46.69c2.05-1.29,4.1-2.59,6.2-3.81,1.48-.85,3.43-1.64,4.78-.6a3,3,0,0,1,.62,3.58,7.94,7.94,0,0,1-2.66,2.84A48.93,48.93,0,0,1,512,58.25Q521.07,52.47,530.18,46.69Z" transform="translate(-456.81 -36.68)" style="fill:#69972d"/><path d="M505,58.57c-8-1.33-16.28-3.44-23.58-7.09-4-2-7.62-5.65-8.18-10.34v0a5.09,5.09,0,0,1,1.12-3.17,5.05,5.05,0,0,0-1.94,4V42c.57,4.69,4.13,8.31,8.18,10.34,7.3,3.65,15.55,5.76,23.59,7.1.84.14,2.45.52,3.24,0a1.25,1.25,0,0,0,.48-.67A7.56,7.56,0,0,1,505,58.57Z" transform="translate(-456.81 -36.68)" style="fill:#f0ec92"/><path d="M515.56,58.77c8-1.36,16.23-3.51,23.51-7.23,4-2.07,7.59-5.76,8.15-10.55v-.05a5.21,5.21,0,0,0-1.12-3.22,5.19,5.19,0,0,1,1.94,4.06v0c-.57,4.79-4.12,8.48-8.16,10.55-7.28,3.72-15.5,5.88-23.51,7.23-.84.15-2.45.54-3.23,0a1.28,1.28,0,0,1-.49-.69A7,7,0,0,0,515.56,58.77Z" transform="translate(-456.81 -36.68)" style="fill:#f0ec92"/><path d="M490.13,45.69c-2-1.41-3.95-2.82-6-4.15-1.43-.94-3.32-1.84-4.73-.87a3,3,0,0,0-.82,3.54,7.88,7.88,0,0,0,2.49,3,48.91,48.91,0,0,0,26.59,11Z" transform="translate(-456.81 -36.68)" style="fill:#69972d"/><circle cx="53.63" cy="22.74" r="2.84" style="fill:#c8d411"/><path d="M510.44,57.16a2.84,2.84,0,0,1,2.83,2.55,2.84,2.84,0,1,0-5.65,0A2.83,2.83,0,0,1,510.44,57.16Z" transform="translate(-456.81 -36.68)" style="fill:#f0ec92"/><path d="M476.4,59.64c-.31,1.18-.73,2.48-.2,3.58a2.89,2.89,0,0,0,2.05,1.47,7.91,7.91,0,0,0,2.57,0l2.1-11.81a15.44,15.44,0,0,1-7.38-5A18.4,18.4,0,0,1,476.4,59.64Z" transform="translate(-456.81 -36.68)" style="fill:#f0ec92"/><path d="M544.59,59.75c.31,1.18.73,2.48.2,3.58a2.89,2.89,0,0,1-2,1.47,8.2,8.2,0,0,1-2.57,0q-1-5.91-2.11-11.82a15.29,15.29,0,0,0,7.39-5A18.44,18.44,0,0,0,544.59,59.75Z" transform="translate(-456.81 -36.68)" style="fill:#f0ec92"/><path d="M510.25,61.58a1.55,1.55,0,0,0-1.59-1.69l-10.9-1.19a.23.23,0,0,0-.1.44l2.4.85a.33.33,0,0,1-.11.65l-6.62,0a.11.11,0,0,0,0,.22l6,.68a.4.4,0,0,1,.05.79l-3,.76Z" transform="translate(-456.81 -36.68)" style="fill:#7aab46"/><path d="M513.24,59a2.83,2.83,0,0,1-5.59,0,2.32,2.32,0,0,0,0,.46,2.84,2.84,0,1,0,5.67,0A2.32,2.32,0,0,0,513.24,59Z" transform="translate(-456.81 -36.68)" style="fill:#5ca248"/><path d="M559.67,146.09H492.38c-1.32-27-1.44-54.29-.36-81.38a511.81,511.81,0,0,1,69.11,7.8A324.33,324.33,0,0,1,559.67,146.09Z" transform="translate(-456.81 -36.68)" style="fill:#e7352d"/><path d="M558.63,121a1.72,1.72,0,0,1-1.79,1.58,1.63,1.63,0,0,1-1.61-1.69,1.7,1.7,0,0,1,1.78-1.58A1.64,1.64,0,0,1,558.63,121Z" transform="translate(-456.81 -36.68)" style="fill:#fdde00"/><path d="M460.53,146.09h31.85c-1.32-27-1.44-54.29-.36-81.38C481.08,68.1,470,71.84,458.75,75.83A317.33,317.33,0,0,0,460.53,146.09Z" transform="translate(-456.81 -36.68)" style="fill:#bf1c18"/><path d="M524.76,146.09h5.48c1.36-25.93,1.53-52.13.52-78.18l-5.63-.65C525.87,93.49,525.75,120,524.76,146.09Z" transform="translate(-456.81 -36.68)" style="fill:#c8d411"/><path d="M486.15,100.75a1.45,1.45,0,0,0-1.63-1.48,1.89,1.89,0,0,0-1.64,1.83,1.46,1.46,0,0,0,1.64,1.48A1.86,1.86,0,0,0,486.15,100.75Z" transform="translate(-456.81 -36.68)" style="fill:#f9b600"/><path d="M487.64,92.27a1.94,1.94,0,0,0,1.65-1.87,1.4,1.4,0,0,0-1.61-1.46A2,2,0,0,0,486,90.81,1.4,1.4,0,0,0,487.64,92.27Z" transform="translate(-456.81 -36.68)" style="fill:#f9b600"/><path d="M489.74,115a1.76,1.76,0,0,0,1.6-1.79,1.53,1.53,0,0,0-1.65-1.55,1.78,1.78,0,0,0-1.61,1.79A1.55,1.55,0,0,0,489.74,115Z" transform="translate(-456.81 -36.68)" style="fill:#f9b600"/><path d="M479.47,141.84a1.46,1.46,0,0,0-1.43,1.63,1.75,1.75,0,0,0,1.68,1.61,1.46,1.46,0,0,0,1.43-1.62A1.74,1.74,0,0,0,479.47,141.84Z" transform="translate(-456.81 -36.68)" style="fill:#f9b600"/><path d="M472.46,102.88a1.87,1.87,0,0,0-1.63,1.79,1.44,1.44,0,0,0,1.65,1.42,1.85,1.85,0,0,0,1.62-1.79A1.43,1.43,0,0,0,472.46,102.88Z" transform="translate(-456.81 -36.68)" style="fill:#f9b600"/><path d="M481.85,86a1.32,1.32,0,0,0-1.58-1.39,2,2,0,0,0-1.67,1.88,1.32,1.32,0,0,0,1.58,1.39A2,2,0,0,0,481.85,86Z" transform="translate(-456.81 -36.68)" style="fill:#f9b600"/><path d="M484.12,134.41a1.58,1.58,0,0,0,1.51-1.69,1.65,1.65,0,0,0-1.67-1.6,1.59,1.59,0,0,0-1.51,1.7A1.67,1.67,0,0,0,484.12,134.41Z" transform="translate(-456.81 -36.68)" style="fill:#f9b600"/><path d="M482.85,123.35a1.67,1.67,0,0,0,1.56-1.73,1.58,1.58,0,0,0-1.67-1.56,1.69,1.69,0,0,0-1.56,1.74A1.58,1.58,0,0,0,482.85,123.35Z" transform="translate(-456.81 -36.68)" style="fill:#f9b600"/><path d="M478.27,111.59a1.77,1.77,0,0,0-1.6,1.77,1.53,1.53,0,0,0,1.67,1.49,1.76,1.76,0,0,0,1.59-1.77A1.51,1.51,0,0,0,478.27,111.59Z" transform="translate(-456.81 -36.68)" style="fill:#f9b600"/><path d="M463.5,89.93a1.26,1.26,0,0,0-1.58-1.28,2.08,2.08,0,0,0-1.68,1.84,1.26,1.26,0,0,0,1.57,1.28A2.07,2.07,0,0,0,463.5,89.93Z" transform="translate(-456.81 -36.68)" style="fill:#f9b600"/><path d="M459.46,109.51a1.79,1.79,0,0,0,1.6-1.73,1.4,1.4,0,0,0-1.65-1.35,1.82,1.82,0,0,0-1.61,1.74A1.42,1.42,0,0,0,459.46,109.51Z" transform="translate(-456.81 -36.68)" style="fill:#f9b600"/><path d="M460.39,133.2a1.68,1.68,0,0,0,1.73,1.48,1.48,1.48,0,0,0,1.45-1.6,1.67,1.67,0,0,0-1.73-1.49A1.48,1.48,0,0,0,460.39,133.2Z" transform="translate(-456.81 -36.68)" style="fill:#f9b600"/><path d="M492.12,140.67a1.5,1.5,0,0,0-2.5,1.29,1.72,1.72,0,0,0,1.64,1.66,1.45,1.45,0,0,0,1-.4Z" transform="translate(-456.81 -36.68)" style="fill:#f9b600"/><path d="M465.29,114.37a1.7,1.7,0,0,0-1.56,1.71,1.5,1.5,0,0,0,1.68,1.42,1.69,1.69,0,0,0,1.56-1.71A1.49,1.49,0,0,0,465.29,114.37Z" transform="translate(-456.81 -36.68)" style="fill:#f9b600"/><path d="M468.19,98.64a1.93,1.93,0,0,0,1.65-1.81,1.34,1.34,0,0,0-1.61-1.36,2,2,0,0,0-1.66,1.81A1.36,1.36,0,0,0,468.19,98.64Z" transform="translate(-456.81 -36.68)" style="fill:#f9b600"/><path d="M468.6,83.56a2.12,2.12,0,0,0,1.7-1.88,1.22,1.22,0,0,0-1.54-1.29,2.14,2.14,0,0,0-1.7,1.88A1.22,1.22,0,0,0,468.6,83.56Z" transform="translate(-456.81 -36.68)" style="fill:#f9b600"/><path d="M470.32,142.13a1.44,1.44,0,0,0,1.42-1.6A1.73,1.73,0,0,0,470,139a1.44,1.44,0,0,0-1.42,1.61A1.74,1.74,0,0,0,470.32,142.13Z" transform="translate(-456.81 -36.68)" style="fill:#f9b600"/><path d="M472.61,124.54a1.6,1.6,0,1,0,1.69,1.51A1.6,1.6,0,0,0,472.61,124.54Z" transform="translate(-456.81 -36.68)" style="fill:#f9b600"/><path d="M507.36,90.05a1.72,1.72,0,0,1-1.72,1.7,1.69,1.69,0,0,1-1.71-1.68,1.72,1.72,0,0,1,1.72-1.7A1.69,1.69,0,0,1,507.36,90.05Z" transform="translate(-456.81 -36.68)" style="fill:#fdde00"/><path d="M473,70.88a449.55,449.55,0,0,0,1.08,75.21h4.46a516.17,516.17,0,0,1-.87-76.77Z" transform="translate(-456.81 -36.68)" style="fill:#92ad11"/><path d="M492,64.71c0,1,.3,2.72.26,3.68a490,490,0,0,1,69.3,8.09c-.08-.94-.37-2.41-.45-3.35A477.91,477.91,0,0,0,492,64.71Z" transform="translate(-456.81 -36.68)" style="fill:#bf1c18"/><path d="M530.76,68.19c-1.87-.24-3.75-.49-5.63-.72l.09,3.53q2.82.31,5.66.68C530.84,70.52,530.81,69.35,530.76,68.19Z" transform="translate(-456.81 -36.68)" style="fill:#8fa326"/><path d="M492.33,64.64c-10.94,3.68-22.37,7.81-33.58,12.14-.06.72-.27,2.29-.32,3,11.38-4,23.41-7.67,33.83-11.43C492.31,67.41,492.35,65.63,492.33,64.64Z" transform="translate(-456.81 -36.68)" style="fill:#a41916"/><path d="M473,71.45c-.08,1.17-.14,2.34-.21,3.51l4.69-1.54c.06-1.22.12-2.44.19-3.66Z" transform="translate(-456.81 -36.68)" style="fill:#628628"/><path d="M563.21,66a476.45,476.45,0,0,0-70.55-8.82q-.24,4.37-.45,8.74a523.57,523.57,0,0,1,71.72,8.26H564Q563.66,70.08,563.21,66Z" transform="translate(-456.81 -36.68)" style="fill:#e7352d"/><path d="M492.62,58.21a472.34,472.34,0,0,1,70.61,8l0-.27a476.45,476.45,0,0,0-70.55-8.82q-.24,4.37-.45,8.74C492.34,63.24,492.48,60.86,492.62,58.21Z" transform="translate(-456.81 -36.68)" style="fill:#f1876e"/><path d="M492.33,65.89c.09-2.91.21-5.82.33-8.73-11.48,3.81-23.23,8.06-35.12,12.61-.27,2.57-.52,5.14-.73,7.7l2.42-1C470.37,72.7,481.43,69.12,492.33,65.89Z" transform="translate(-456.81 -36.68)" style="fill:#bf1c18"/><path d="M486.51,64.62a2.14,2.14,0,0,0,1.66-1.94,1.23,1.23,0,0,0-1.48-1.37A2.17,2.17,0,0,0,485,63.25,1.22,1.22,0,0,0,486.51,64.62Z" transform="translate(-456.81 -36.68)" style="fill:#f9b600"/><path d="M477.91,69.36a2.22,2.22,0,0,0,1.7-2,1.2,1.2,0,0,0-1.48-1.34,2.26,2.26,0,0,0-1.71,2A1.2,1.2,0,0,0,477.91,69.36Z" transform="translate(-456.81 -36.68)" style="fill:#f9b600"/><path d="M459.43,76.05a2.38,2.38,0,0,0,1.75-2,1.13,1.13,0,0,0-1.46-1.27,2.41,2.41,0,0,0-1.76,2A1.14,1.14,0,0,0,459.43,76.05Z" transform="translate(-456.81 -36.68)" style="fill:#f9b600"/><path d="M466.88,70.7a2.32,2.32,0,0,0,1.73-2,1.14,1.14,0,0,0-1.45-1.3,2.39,2.39,0,0,0-1.74,2A1.14,1.14,0,0,0,466.88,70.7Z" transform="translate(-456.81 -36.68)" style="fill:#f9b600"/><path d="M492.63,57.91c-.12,2.66-.21,5.31-.3,8,.09-2.91.21-5.82.33-8.73-11.48,3.81-23.23,8.06-35.12,12.61l0,.21C469.38,65.6,481.13,61.54,492.63,57.91Z" transform="translate(-456.81 -36.68)" style="fill:#f1876e"/><path d="M526.9,68.67c1.88.22,3.76.44,5.65.68q-.18-4.27-.4-8.55l-5.55-.72Q526.77,64.37,526.9,68.67Z" transform="translate(-456.81 -36.68)" style="fill:#c8d411"/><path d="M526.58,60.78c1.85.21,3.76.39,5.61.63l0-.61-5.55-.72C526.61,60.25,526.57,60.6,526.58,60.78Z" transform="translate(-456.81 -36.68)" style="fill:#ebe987"/><path d="M500.61,63a1.75,1.75,0,0,1-1.69,1.72,1.56,1.56,0,0,1-1.6-1.63A1.78,1.78,0,0,1,499,61.31,1.57,1.57,0,0,1,500.61,63Z" transform="translate(-456.81 -36.68)" style="fill:#fdde00"/><path d="M512.47,75.07a1.69,1.69,0,1,1-1.69-1.69A1.69,1.69,0,0,1,512.47,75.07Z" transform="translate(-456.81 -36.68)" style="fill:#fdde00"/><path d="M497.42,79.85a1.78,1.78,0,0,1-1.73,1.72A1.6,1.6,0,0,1,494,79.94a1.79,1.79,0,0,1,1.73-1.73A1.61,1.61,0,0,1,497.42,79.85Z" transform="translate(-456.81 -36.68)" style="fill:#fdde00"/><path d="M498.32,100.9a1.73,1.73,0,0,1-1.72,1.71,1.67,1.67,0,0,1-1.72-1.65,1.76,1.76,0,0,1,1.72-1.72A1.67,1.67,0,0,1,498.32,100.9Z" transform="translate(-456.81 -36.68)" style="fill:#fdde00"/><path d="M523.87,94.6a1.66,1.66,0,0,1-1.71,1.66,1.74,1.74,0,0,1-1.72-1.72,1.67,1.67,0,0,1,1.71-1.66A1.75,1.75,0,0,1,523.87,94.6Z" transform="translate(-456.81 -36.68)" style="fill:#fdde00"/><path d="M514.44,103.57a1.72,1.72,0,1,1-1.72-1.7A1.72,1.72,0,0,1,514.44,103.57Z" transform="translate(-456.81 -36.68)" style="fill:#fdde00"/><path d="M516,125.92a1.7,1.7,0,1,1-1.69-1.69A1.68,1.68,0,0,1,516,125.92Z" transform="translate(-456.81 -36.68)" style="fill:#fdde00"/><path d="M496.85,124.49a1.66,1.66,0,0,1-1.65,1.7,1.73,1.73,0,0,1-1.74-1.66,1.66,1.66,0,0,1,1.66-1.7A1.71,1.71,0,0,1,496.85,124.49Z" transform="translate(-456.81 -36.68)" style="fill:#fdde00"/><path d="M504.33,133.64a1.65,1.65,0,0,1-1.64,1.69,1.71,1.71,0,0,1-1.7-1.68,1.64,1.64,0,0,1,1.64-1.68A1.69,1.69,0,0,1,504.33,133.64Z" transform="translate(-456.81 -36.68)" style="fill:#fdde00"/><path d="M514.65,143.25a1.68,1.68,0,0,1-1.66,1.68,1.68,1.68,0,1,1,1.66-1.68Z" transform="translate(-456.81 -36.68)" style="fill:#fdde00"/><path d="M524.3,133.48a1.71,1.71,0,0,1-1.71,1.67,1.64,1.64,0,0,1-1.63-1.69,1.7,1.7,0,0,1,1.71-1.67A1.64,1.64,0,0,1,524.3,133.48Z" transform="translate(-456.81 -36.68)" style="fill:#fdde00"/><path d="M505.73,114.48a1.71,1.71,0,0,1-3.42,0,1.71,1.71,0,0,1,3.42,0Z" transform="translate(-456.81 -36.68)" style="fill:#fdde00"/><path d="M522.71,113.8a1.69,1.69,0,0,1-1.73,1.66,1.72,1.72,0,0,1-1.7-1.71,1.67,1.67,0,0,1,1.72-1.66A1.72,1.72,0,0,1,522.71,113.8Z" transform="translate(-456.81 -36.68)" style="fill:#fdde00"/><path d="M524,83.86a1.63,1.63,0,0,1-1.68,1.65,1.75,1.75,0,0,1-1.73-1.72,1.64,1.64,0,0,1,1.69-1.65A1.76,1.76,0,0,1,524,83.86Z" transform="translate(-456.81 -36.68)" style="fill:#fdde00"/><path d="M538.83,67.45A1.46,1.46,0,0,1,537.26,69a1.9,1.9,0,0,1-1.75-1.76,1.46,1.46,0,0,1,1.57-1.58A1.91,1.91,0,0,1,538.83,67.45Z" transform="translate(-456.81 -36.68)" style="fill:#fdde00"/><path d="M549.16,81.22a1.47,1.47,0,0,1-1.62,1.55A1.91,1.91,0,0,1,545.77,81a1.48,1.48,0,0,1,1.62-1.56A1.94,1.94,0,0,1,549.16,81.22Z" transform="translate(-456.81 -36.68)" style="fill:#fdde00"/><path d="M538.49,106.51a1.65,1.65,0,0,1-1.73,1.62,1.72,1.72,0,0,1-1.7-1.72,1.64,1.64,0,0,1,1.72-1.62A1.74,1.74,0,0,1,538.49,106.51Z" transform="translate(-456.81 -36.68)" style="fill:#fdde00"/><path d="M549,95.9a1.56,1.56,0,0,1-1.69,1.57,1.82,1.82,0,0,1-1.74-1.74,1.57,1.57,0,0,1,1.69-1.58A1.83,1.83,0,0,1,549,95.9Z" transform="translate(-456.81 -36.68)" style="fill:#fdde00"/><path d="M558.45,105.87a1.61,1.61,0,0,1-1.73,1.56,1.76,1.76,0,0,1-1.7-1.73,1.6,1.6,0,0,1,1.72-1.56A1.78,1.78,0,0,1,558.45,105.87Z" transform="translate(-456.81 -36.68)" style="fill:#fdde00"/><path d="M548.62,114.73A1.71,1.71,0,1,1,547,113,1.68,1.68,0,0,1,548.62,114.73Z" transform="translate(-456.81 -36.68)" style="fill:#fdde00"/><path d="M539,123.85a1.73,1.73,0,0,1-1.75,1.65,1.65,1.65,0,0,1-1.64-1.7,1.71,1.71,0,0,1,1.75-1.64A1.64,1.64,0,0,1,539,123.85Z" transform="translate(-456.81 -36.68)" style="fill:#fdde00"/><path d="M551.91,130.3a1.78,1.78,0,0,1-1.79,1.62,1.57,1.57,0,0,1-1.57-1.68,1.77,1.77,0,0,1,1.79-1.62A1.57,1.57,0,0,1,551.91,130.3Z" transform="translate(-456.81 -36.68)" style="fill:#fdde00"/><path d="M557.32,140.23a1.87,1.87,0,0,1-1.82,1.62A1.46,1.46,0,0,1,554,140.2a1.84,1.84,0,0,1,1.81-1.62A1.47,1.47,0,0,1,557.32,140.23Z" transform="translate(-456.81 -36.68)" style="fill:#fdde00"/><path d="M538.07,141.34a1.79,1.79,0,0,1-1.75,1.66,1.55,1.55,0,0,1-1.54-1.67,1.77,1.77,0,0,1,1.74-1.66A1.54,1.54,0,0,1,538.07,141.34Z" transform="translate(-456.81 -36.68)" style="fill:#fdde00"/><path d="M538.15,88.52a1.58,1.58,0,0,1-1.68,1.6,1.8,1.8,0,0,1-1.74-1.74,1.58,1.58,0,0,1,1.67-1.61A1.84,1.84,0,0,1,538.15,88.52Z" transform="translate(-456.81 -36.68)" style="fill:#fdde00"/><path d="M558.81,88.7a1.48,1.48,0,0,1-1.65,1.52,1.91,1.91,0,0,1-1.76-1.77A1.47,1.47,0,0,1,557,86.93,1.93,1.93,0,0,1,558.81,88.7Z" transform="translate(-456.81 -36.68)" style="fill:#fdde00"/><path d="M563.43,68.09a2,2,0,0,0-1-.39A1.28,1.28,0,0,0,561,69.16,2.13,2.13,0,0,0,562.83,71a1.38,1.38,0,0,0,.87-.17C563.62,69.91,563.53,69,563.43,68.09Z" transform="translate(-456.81 -36.68)" style="fill:#fdde00"/><path d="M552.55,67.7A1.36,1.36,0,0,1,551,69.22a2,2,0,0,1-1.79-1.8,1.36,1.36,0,0,1,1.51-1.52A2.06,2.06,0,0,1,552.55,67.7Z" transform="translate(-456.81 -36.68)" style="fill:#fdde00"/><path d="M512.39,61.58a1.65,1.65,0,1,1-3.29,0,1.65,1.65,0,1,1,3.29,0Z" transform="translate(-456.81 -36.68)" style="fill:#fdde00"/><path d="M522.2,65.51a1.6,1.6,0,0,1-1.63,1.65,1.75,1.75,0,0,1-1.69-1.72,1.59,1.59,0,0,1,1.63-1.64A1.76,1.76,0,0,1,522.2,65.51Z" transform="translate(-456.81 -36.68)" style="fill:#fdde00"/><path d="M471.23,72.51l4.67-1.57q.25-4.08.57-8.15l-4.63,1.66Q471.5,68.49,471.23,72.51Z" transform="translate(-456.81 -36.68)" style="fill:#92ad11"/><path d="M476.47,62.79l-4.63,1.66,0,.4c1.54-.54,3.08-1.08,4.62-1.6C476.44,63.09,476.45,62.94,476.47,62.79Z" transform="translate(-456.81 -36.68)" style="fill:#cbd95d"/><path d="M492.54,65.92c-1.09,26.23-1.29,54.06-.16,80.17C491,120,491.12,92.18,492,66a2.45,2.45,0,0,0,.35,0Z" transform="translate(-456.81 -36.68)" style="fill:#ef7b56"/><path d="M492.33,65.89q.29-4.37.6-8.71l-.27,0-.3.1Q492.31,61.57,492.33,65.89Z" transform="translate(-456.81 -36.68)" style="fill:#ef7b56"/></svg>